# xmcd
#
# Track frame offsets:
#	150
#	55597
#	67340
#	75895
#	89870
#	115075
#	126982
#	139337
#	202632
#
# Disc length: 2969 seconds
#
# Revision: 1
# Processed by: cddbd v1.5.2PL0 Copyright (c) Steve Scherf et al.
# Submitted via: audiograbber 1.83.01
#
DISCID=7b0b9709
DTITLE=Benny Goodman - Sing Sing Sing
DYEAR=1989
DGENRE=Jazz
TTITLE0=Sing Sing Sing (With A Swing)
TTITLE1=Let's Dance
TTITLE2=Bill Bailey, Won't You Please Come Home
TTITLE3=Moonglow
TTITLE4=After You've Gone
TTITLE5=Bugle Call Rag
TTITLE6=I'm Gonna Sit Right Down And Write Myself A Letter
TTITLE7=Honeysuckle Rose
TTITLE8=You'd Be So Nice To Come Home To
EXTD=
EXTT0=
EXTT1=
EXTT2=
EXTT3=
EXTT4=
EXTT5=
EXTT6=
EXTT7=
EXTT8=
PLAYORDER=
